<?xml version="1.0" encoding="UTF-8"?>
<svg width="447px" height="88px" viewBox="0 0 447 88" version="1.1" xmlns="http://www.w3.org/2000/svg" xmlns:xlink="http://www.w3.org/1999/xlink">
    <!-- Generator: Sketch 43.1 (39012) - http://www.bohemiancoding.com/sketch -->
    <title>FinalLogo_LeftAlign</title>
    <desc>Created with Sketch.</desc>
    <defs></defs>
    <g id="COLUR-RESTYLE" stroke="none" stroke-width="1" fill="none" fill-rule="evenodd">
        <g id="iPad-Pro-Landscape" transform="translate(-160.000000, -486.000000)">
            <g id="FinalLogo_LeftAlign" transform="translate(160.000000, 486.000000)">
                <polyline id="Fill-1" fill="#6B7671" points="142.94 17.385 142.94 19.107 132.912 19.107 132.912 44.122 130.825 44.122 130.825 19.107 120.797 19.107 120.797 17.385 142.94 17.385"></polyline>
                <polygon id="Stroke-2" stroke="#6B7671" points="142.94 17.385 142.94 19.107 132.912 19.107 132.912 44.122 130.825 44.122 130.825 19.107 120.797 19.107 120.797 17.385"></polygon>
                <path d="M165.852,33.155 L160.09,20.562 L154.349,33.155 L165.852,33.155 Z M160.677,17.193 L173.038,44.122 L170.869,44.122 L166.64,34.878 L153.564,34.878 L149.35,44.122 L147.182,44.122 L159.541,17.193 L160.677,17.193 L160.677,17.193 Z" id="Fill-3" fill="#6B7671"></path>
                <path d="M165.852,33.155 L160.09,20.562 L154.349,33.155 L165.852,33.155 Z M160.677,17.193 L173.038,44.122 L170.869,44.122 L166.64,34.878 L153.564,34.878 L149.35,44.122 L147.182,44.122 L159.541,17.193 L160.677,17.193 Z" id="Stroke-4" stroke="#6B7671"></path>
                <polyline id="Fill-5" fill="#6B7671" points="194.484 28.885 204.652 17.385 207.307 17.385 195.839 30.414 207.977 44.122 205.318 44.122 194.485 31.887 183.668 44.122 181.011 44.122 193.117 30.429 181.642 17.385 184.301 17.385 194.484 28.885"></polyline>
                <polygon id="Stroke-6" stroke="#6B7671" points="194.484 28.885 204.652 17.385 207.307 17.385 195.839 30.414 207.977 44.122 205.318 44.122 194.485 31.887 183.668 44.122 181.011 44.122 193.117 30.429 181.642 17.385 184.301 17.385"></polygon>
                <path d="M245.244,17.041 C247.847,17.041 250.354,17.691 252.766,18.993 L252.766,23.586 C249.997,21.915 247.541,21.079 245.397,21.079 C244.096,21.079 243.078,21.331 242.344,21.835 C241.61,22.339 241.244,23.011 241.244,23.853 C241.244,24.862 241.926,25.794 243.292,26.648 C243.675,26.903 245.148,27.618 247.713,28.792 C249.907,29.825 251.489,30.973 252.46,32.237 C253.429,33.5 253.914,35.018 253.914,36.792 C253.914,39.089 253.087,40.942 251.436,42.351 C249.783,43.761 247.643,44.467 245.014,44.467 C243.304,44.467 241.834,44.278 240.603,43.902 C239.372,43.525 237.99,42.878 236.46,41.959 L236.46,36.868 C239.317,39.241 242.009,40.428 244.536,40.428 C245.799,40.428 246.82,40.154 247.598,39.605 C248.376,39.056 248.766,38.33 248.766,37.424 C248.766,36.186 248.089,35.178 246.737,34.399 C245.614,33.787 244.166,33.053 242.392,32.198 C240.287,31.241 238.714,30.125 237.675,28.849 C236.634,27.573 236.115,26.092 236.115,24.409 C236.115,22.163 236.95,20.374 238.622,19.041 C240.293,17.707 242.501,17.041 245.244,17.041" id="Fill-7" fill="#6B7671"></path>
                <path d="M245.244,17.041 C247.847,17.041 250.354,17.691 252.766,18.993 L252.766,23.586 C249.997,21.915 247.541,21.079 245.397,21.079 C244.096,21.079 243.078,21.331 242.344,21.835 C241.61,22.339 241.244,23.011 241.244,23.853 C241.244,24.862 241.926,25.794 243.292,26.648 C243.675,26.903 245.148,27.618 247.713,28.792 C249.907,29.825 251.489,30.973 252.46,32.237 C253.429,33.5 253.914,35.018 253.914,36.792 C253.914,39.089 253.087,40.942 251.436,42.351 C249.783,43.761 247.643,44.467 245.014,44.467 C243.304,44.467 241.834,44.278 240.603,43.902 C239.372,43.525 237.99,42.878 236.46,41.959 L236.46,36.868 C239.317,39.241 242.009,40.428 244.536,40.428 C245.799,40.428 246.82,40.154 247.598,39.605 C248.376,39.056 248.766,38.33 248.766,37.424 C248.766,36.186 248.089,35.178 246.737,34.399 C245.614,33.787 244.166,33.053 242.392,32.198 C240.287,31.241 238.714,30.125 237.675,28.849 C236.634,27.573 236.115,26.092 236.115,24.409 C236.115,22.163 236.95,20.374 238.622,19.041 C240.293,17.707 242.501,17.041 245.244,17.041 Z" id="Stroke-8" stroke="#6B7671" stroke-width="0.25"></path>
                <polyline id="Fill-9" fill="#6B7671" points="268.184 17.385 274.652 26.323 281.198 17.385 287.341 17.385 277.236 30.878 277.236 44.122 272.069 44.122 272.069 30.84 261.906 17.385 268.184 17.385"></polyline>
                <polygon id="Stroke-10" stroke="#6B7671" stroke-width="0.25" points="268.184 17.385 274.652 26.323 281.198 17.385 287.341 17.385 277.236 30.878 277.236 44.122 272.069 44.122 272.069 30.84 261.906 17.385"></polygon>
                <path d="M304.883,17.041 C307.486,17.041 309.994,17.691 312.405,18.993 L312.405,23.586 C309.636,21.915 307.18,21.079 305.037,21.079 C303.735,21.079 302.717,21.331 301.984,21.835 C301.25,22.339 300.883,23.011 300.883,23.853 C300.883,24.862 301.566,25.794 302.931,26.648 C303.314,26.903 304.788,27.618 307.352,28.792 C309.546,29.825 311.128,30.973 312.099,32.237 C313.068,33.5 313.553,35.018 313.553,36.792 C313.553,39.089 312.727,40.942 311.075,42.351 C309.422,43.761 307.282,44.467 304.654,44.467 C302.944,44.467 301.473,44.278 300.243,43.902 C299.011,43.525 297.629,42.878 296.099,41.959 L296.099,36.868 C298.957,39.241 301.649,40.428 304.175,40.428 C305.438,40.428 306.46,40.154 307.238,39.605 C308.015,39.056 308.405,38.33 308.405,37.424 C308.405,36.186 307.728,35.178 306.376,34.399 C305.253,33.787 303.805,33.053 302.032,32.198 C299.926,31.241 298.354,30.125 297.314,28.849 C296.274,27.573 295.754,26.092 295.754,24.409 C295.754,22.163 296.589,20.374 298.261,19.041 C299.933,17.707 302.14,17.041 304.883,17.041" id="Fill-11" fill="#6B7671"></path>
                <path d="M304.883,17.041 C307.486,17.041 309.994,17.691 312.405,18.993 L312.405,23.586 C309.636,21.915 307.18,21.079 305.037,21.079 C303.735,21.079 302.717,21.331 301.984,21.835 C301.25,22.339 300.883,23.011 300.883,23.853 C300.883,24.862 301.566,25.794 302.931,26.648 C303.314,26.903 304.788,27.618 307.352,28.792 C309.546,29.825 311.128,30.973 312.099,32.237 C313.068,33.5 313.553,35.018 313.553,36.792 C313.553,39.089 312.727,40.942 311.075,42.351 C309.422,43.761 307.282,44.467 304.654,44.467 C302.944,44.467 301.473,44.278 300.243,43.902 C299.011,43.525 297.629,42.878 296.099,41.959 L296.099,36.868 C298.957,39.241 301.649,40.428 304.175,40.428 C305.438,40.428 306.46,40.154 307.238,39.605 C308.015,39.056 308.405,38.33 308.405,37.424 C308.405,36.186 307.728,35.178 306.376,34.399 C305.253,33.787 303.805,33.053 302.032,32.198 C299.926,31.241 298.354,30.125 297.314,28.849 C296.274,27.573 295.754,26.092 295.754,24.409 C295.754,22.163 296.589,20.374 298.261,19.041 C299.933,17.707 302.14,17.041 304.883,17.041 Z" id="Stroke-12" stroke="#6B7671" stroke-width="0.25"></path>
                <polyline id="Fill-13" fill="#6B7671" points="347.306 17.385 347.306 21.423 337.813 21.423 337.813 44.122 332.646 44.122 332.646 21.423 323.153 21.423 323.153 17.385 347.306 17.385"></polyline>
                <polygon id="Stroke-14" stroke="#6B7671" stroke-width="0.25" points="347.306 17.385 347.306 21.423 337.813 21.423 337.813 44.122 332.646 44.122 332.646 21.423 323.153 21.423 323.153 17.385"></polygon>
                <polyline id="Fill-15" fill="#6B7671" points="376.351 17.385 376.351 21.423 364.237 21.423 364.237 28.447 375.835 28.447 375.835 32.485 364.237 32.485 364.237 40.084 376.62 40.084 376.62 44.122 359.069 44.122 359.069 17.385 376.351 17.385"></polyline>
                <polygon id="Stroke-16" stroke="#6B7671" stroke-width="0.25" points="376.351 17.385 376.351 21.423 364.237 21.423 364.237 28.447 375.835 28.447 375.835 32.485 364.237 32.485 364.237 40.084 376.62 40.084 376.62 44.122 359.069 44.122 359.069 17.385"></polygon>
                <polyline id="Fill-17" fill="#6B7671" points="393.931 17.385 402.716 27.93 411.501 17.385 416.114 17.385 416.114 44.122 410.946 44.122 410.946 25.346 410.793 25.346 403.061 34.763 402.334 34.763 394.601 25.346 394.449 25.346 394.449 44.122 389.281 44.122 389.281 17.385 393.931 17.385"></polyline>
                <polygon id="Stroke-18" stroke="#6B7671" stroke-width="0.25" points="393.931 17.385 402.716 27.93 411.501 17.385 416.114 17.385 416.114 44.122 410.946 44.122 410.946 25.346 410.793 25.346 403.061 34.763 402.334 34.763 394.601 25.346 394.449 25.346 394.449 44.122 389.281 44.122 389.281 17.385"></polygon>
                <path d="M437.598,17.041 C440.202,17.041 442.709,17.691 445.12,18.993 L445.12,23.586 C442.351,21.915 439.895,21.079 437.751,21.079 C436.45,21.079 435.432,21.331 434.699,21.835 C433.965,22.339 433.598,23.011 433.598,23.853 C433.598,24.862 434.281,25.794 435.646,26.648 C436.029,26.903 437.502,27.618 440.067,28.792 C442.261,29.825 443.844,30.973 444.814,32.237 C445.784,33.5 446.268,35.018 446.268,36.792 C446.268,39.089 445.442,40.942 443.79,42.351 C442.137,43.761 439.997,44.467 437.369,44.467 C435.659,44.467 434.188,44.278 432.958,43.902 C431.726,43.525 430.345,42.878 428.814,41.959 L428.814,36.868 C431.671,39.241 434.364,40.428 436.89,40.428 C438.154,40.428 439.174,40.154 439.953,39.605 C440.731,39.056 441.12,38.33 441.12,37.424 C441.12,36.186 440.444,35.178 439.091,34.399 C437.968,33.787 436.52,33.053 434.747,32.198 C432.641,31.241 431.069,30.125 430.029,28.849 C428.989,27.573 428.469,26.092 428.469,24.409 C428.469,22.163 429.305,20.374 430.976,19.041 C432.648,17.707 434.855,17.041 437.598,17.041" id="Fill-19" fill="#6B7671"></path>
                <g id="Group-23">
                    <path d="M437.598,17.041 C440.202,17.041 442.709,17.691 445.12,18.993 L445.12,23.586 C442.351,21.915 439.895,21.079 437.751,21.079 C436.45,21.079 435.432,21.331 434.699,21.835 C433.965,22.339 433.598,23.011 433.598,23.853 C433.598,24.862 434.281,25.794 435.646,26.648 C436.029,26.903 437.502,27.618 440.067,28.792 C442.261,29.825 443.844,30.973 444.814,32.237 C445.784,33.5 446.268,35.018 446.268,36.792 C446.268,39.089 445.442,40.942 443.79,42.351 C442.137,43.761 439.997,44.467 437.369,44.467 C435.659,44.467 434.188,44.278 432.958,43.902 C431.726,43.525 430.345,42.878 428.814,41.959 L428.814,36.868 C431.671,39.241 434.364,40.428 436.89,40.428 C438.154,40.428 439.174,40.154 439.953,39.605 C440.731,39.056 441.12,38.33 441.12,37.424 C441.12,36.186 440.444,35.178 439.091,34.399 C437.968,33.787 436.52,33.053 434.747,32.198 C432.641,31.241 431.069,30.125 430.029,28.849 C428.989,27.573 428.469,26.092 428.469,24.409 C428.469,22.163 429.305,20.374 430.976,19.041 C432.648,17.707 434.855,17.041 437.598,17.041 Z" id="Stroke-20" stroke="#6B7671" stroke-width="0.25"></path>
                    <polygon id="Fill-22" fill="#E16E2B" points="0.06 88 93.169 88 93.169 0.933 0.06 0.933"></polygon>
                </g>
                <path d="M86.915,73.476 C69.815,73.236 59.645,70.416 47.075,56.686 L29.605,73.226 L7.525,73.226 L38.065,45.436 C30.385,34.446 26.585,25.566 12.225,18.476 C37.235,20.056 43.405,29.446 55.045,43.176 C66.365,56.766 64.255,61.086 86.915,73.476" id="Fill-24" fill="#FFFFFF"></path>
                <path d="M74.192,32.856 C74.192,38.072 69.949,42.316 64.732,42.316 C59.515,42.316 55.272,38.072 55.272,32.856 C55.272,27.639 59.515,23.396 64.732,23.396 C69.949,23.396 74.192,27.639 74.192,32.856" id="Fill-25" fill="#B1B837"></path>
                <path d="M123.311,71.195 C123.311,69.641 124.36,68.549 125.831,68.549 C127.301,68.549 128.309,69.641 128.309,71.195 C128.309,72.708 127.343,73.842 125.789,73.842 C124.318,73.842 123.311,72.708 123.311,71.195" id="Fill-26" fill="#E16E2B"></path>
                <path d="M140.068,71.195 C140.068,69.641 141.118,68.549 142.588,68.549 C144.059,68.549 145.066,69.641 145.066,71.195 C145.066,72.708 144.101,73.842 142.546,73.842 C141.076,73.842 140.068,72.708 140.068,71.195" id="Fill-27" fill="#E16E2B"></path>
                <path d="M156.825,71.195 C156.825,69.641 157.875,68.549 159.345,68.549 C160.816,68.549 161.824,69.641 161.824,71.195 C161.824,72.708 160.858,73.842 159.303,73.842 C157.833,73.842 156.825,72.708 156.825,71.195" id="Fill-28" fill="#E16E2B"></path>
                <path d="M173.583,71.195 C173.583,69.641 174.632,68.549 176.103,68.549 C177.573,68.549 178.581,69.641 178.581,71.195 C178.581,72.708 177.615,73.842 176.061,73.842 C174.59,73.842 173.583,72.708 173.583,71.195" id="Fill-29" fill="#E16E2B"></path>
                <path d="M190.34,71.195 C190.34,69.641 191.39,68.549 192.86,68.549 C194.331,68.549 195.338,69.641 195.338,71.195 C195.338,72.708 194.373,73.842 192.818,73.842 C191.348,73.842 190.34,72.708 190.34,71.195" id="Fill-30" fill="#E16E2B"></path>
                <path d="M207.097,71.195 C207.097,69.641 208.147,68.549 209.618,68.549 C211.088,68.549 212.096,69.641 212.096,71.195 C212.096,72.708 211.13,73.842 209.575,73.842 C208.105,73.842 207.097,72.708 207.097,71.195" id="Fill-31" fill="#E16E2B"></path>
                <path d="M223.855,71.195 C223.855,69.641 224.904,68.549 226.375,68.549 C227.845,68.549 228.853,69.641 228.853,71.195 C228.853,72.708 227.887,73.842 226.333,73.842 C224.862,73.842 223.855,72.708 223.855,71.195" id="Fill-32" fill="#E16E2B"></path>
                <path d="M240.612,71.195 C240.612,69.641 241.662,68.549 243.132,68.549 C244.603,68.549 245.61,69.641 245.61,71.195 C245.61,72.708 244.645,73.842 243.09,73.842 C241.62,73.842 240.612,72.708 240.612,71.195" id="Fill-33" fill="#E16E2B"></path>
                <path d="M257.37,71.195 C257.37,69.641 258.419,68.549 259.89,68.549 C261.36,68.549 262.368,69.641 262.368,71.195 C262.368,72.708 261.402,73.842 259.848,73.842 C258.377,73.842 257.37,72.708 257.37,71.195" id="Fill-34" fill="#E16E2B"></path>
                <path d="M274.127,71.195 C274.127,69.641 275.177,68.549 276.647,68.549 C278.118,68.549 279.126,69.641 279.126,71.195 C279.126,72.708 278.16,73.842 276.605,73.842 C275.135,73.842 274.127,72.708 274.127,71.195" id="Fill-35" fill="#E16E2B"></path>
                <path d="M290.884,71.195 C290.884,69.641 291.934,68.549 293.405,68.549 C294.876,68.549 295.883,69.641 295.883,71.195 C295.883,72.708 294.918,73.842 293.362,73.842 C291.892,73.842 290.884,72.708 290.884,71.195" id="Fill-36" fill="#E16E2B"></path>
                <path d="M307.642,71.195 C307.642,69.641 308.692,68.549 310.162,68.549 C311.632,68.549 312.64,69.641 312.64,71.195 C312.64,72.708 311.674,73.842 310.12,73.842 C308.65,73.842 307.642,72.708 307.642,71.195" id="Fill-37" fill="#E16E2B"></path>
                <path d="M324.399,71.195 C324.399,69.641 325.449,68.549 326.919,68.549 C328.39,68.549 329.398,69.641 329.398,71.195 C329.398,72.708 328.432,73.842 326.877,73.842 C325.407,73.842 324.399,72.708 324.399,71.195" id="Fill-38" fill="#E16E2B"></path>
                <path d="M341.157,71.195 C341.157,69.641 342.207,68.549 343.676,68.549 C345.147,68.549 346.155,69.641 346.155,71.195 C346.155,72.708 345.189,73.842 343.634,73.842 C342.165,73.842 341.157,72.708 341.157,71.195" id="Fill-39" fill="#E16E2B"></path>
                <path d="M357.914,71.195 C357.914,69.641 358.963,68.549 360.434,68.549 C361.904,68.549 362.913,69.641 362.913,71.195 C362.913,72.708 361.946,73.842 360.392,73.842 C358.921,73.842 357.914,72.708 357.914,71.195" id="Fill-40" fill="#E16E2B"></path>
                <path d="M374.67,71.195 C374.67,69.641 375.72,68.549 377.191,68.549 C378.661,68.549 379.669,69.641 379.669,71.195 C379.669,72.708 378.703,73.842 377.149,73.842 C375.678,73.842 374.67,72.708 374.67,71.195" id="Fill-41" fill="#E16E2B"></path>
                <path d="M391.428,71.195 C391.428,69.641 392.478,68.549 393.949,68.549 C395.418,68.549 396.427,69.641 396.427,71.195 C396.427,72.708 395.46,73.842 393.907,73.842 C392.436,73.842 391.428,72.708 391.428,71.195" id="Fill-42" fill="#E16E2B"></path>
                <path d="M408.186,71.195 C408.186,69.641 409.236,68.549 410.707,68.549 C412.176,68.549 413.185,69.641 413.185,71.195 C413.185,72.708 412.218,73.842 410.665,73.842 C409.194,73.842 408.186,72.708 408.186,71.195" id="Fill-43" fill="#E16E2B"></path>
                <path d="M424.943,71.195 C424.943,69.641 425.993,68.549 427.463,68.549 C428.933,68.549 429.942,69.641 429.942,71.195 C429.942,72.708 428.975,73.842 427.421,73.842 C425.951,73.842 424.943,72.708 424.943,71.195" id="Fill-44" fill="#E16E2B"></path>
                <path d="M441.701,71.195 C441.701,69.641 442.751,68.549 444.221,68.549 C445.691,68.549 446.7,69.641 446.7,71.195 C446.7,72.708 445.733,73.842 444.179,73.842 C442.709,73.842 441.701,72.708 441.701,71.195" id="Fill-45" fill="#E16E2B"></path>
            </g>
        </g>
    </g>
</svg>